<svg width="37" height="37" viewBox="0 0 37 37" fill="none" xmlns="http://www.w3.org/2000/svg">
<path fill-rule="evenodd" clip-rule="evenodd" d="M36.3784 18.2433C36.3784 28.1844 28.3195 36.2433 18.3784 36.2433C8.43729 36.2433 0.378418 28.1844 0.378418 18.2433C0.378418 8.30216 8.43729 0.243286 18.3784 0.243286C28.3195 0.243286 36.3784 8.30216 36.3784 18.2433ZM30.7215 18.2433C30.7215 25.0601 25.1954 30.5862 18.3786 30.5862C17.906 30.5862 17.4396 30.5596 16.9808 30.5079C23.1841 29.856 28.0186 24.6092 28.0186 18.2332C28.0186 11.889 23.2322 6.6628 17.0736 5.96862C17.5024 5.92355 17.9378 5.90044 18.3786 5.90044C25.1954 5.90044 30.7215 11.4265 30.7215 18.2433ZM14.3926 26.9372C18.4608 26.2188 21.5549 22.5998 21.5549 18.2433C21.5549 13.8868 18.4608 10.2677 14.3926 9.54935C14.8849 9.46416 15.3912 9.41976 15.9078 9.41976C20.7809 9.41976 24.7313 13.3702 24.7313 18.2433C24.7313 23.1164 20.7809 27.0668 15.9078 27.0668C15.3912 27.0668 14.8849 27.0224 14.3926 26.9372Z" fill="#F0F0F0"/>
</svg>
